<svg width="610" height="117" viewBox="0 0 610 117" fill="none" xmlns="http://www.w3.org/2000/svg">
<path d="M445.809 45.649L556.809 0.528965C557.839 0.138965 558.539 0.408959 559.419 0.928959L608.879 32.969C609.639 33.479 609.739 34.849 609.739 36.039V112.099C609.739 114.269 608.599 116.019 606.339 116.019H447.939C445.569 116.019 444.039 113.709 444.039 111.539V49.399C444.039 47.849 444.499 46.269 445.809 45.639V45.649Z" fill="#5040FF"/>
<path d="M486.083 95.0515C495.505 95.0515 503.143 85.8286 503.143 74.4516C503.143 63.0745 495.505 53.8516 486.083 53.8516C476.661 53.8516 469.023 63.0745 469.023 74.4516C469.023 85.8286 476.661 95.0515 486.083 95.0515Z" fill="white"/>
<mask id="mask0_12269_26705" style="mask-type:luminance" maskUnits="userSpaceOnUse" x="469" y="53" width="35" height="43">
<path d="M486.083 95.0515C495.505 95.0515 503.143 85.8286 503.143 74.4516C503.143 63.0745 495.505 53.8516 486.083 53.8516C476.661 53.8516 469.023 63.0745 469.023 74.4516C469.023 85.8286 476.661 95.0515 486.083 95.0515Z" fill="white"/>
</mask>
<g mask="url(#mask0_12269_26705)">
<path d="M478.402 88.3181C484.704 88.3181 489.812 82.1083 489.812 74.4482C489.812 66.788 484.704 60.5781 478.402 60.5781C472.101 60.5781 466.992 66.788 466.992 74.4482C466.992 82.1083 472.101 88.3181 478.402 88.3181Z" fill="#14161F"/>
</g>
<path d="M534.154 95.0515C543.576 95.0515 551.214 85.8286 551.214 74.4516C551.214 63.0745 543.576 53.8516 534.154 53.8516C524.732 53.8516 517.094 63.0745 517.094 74.4516C517.094 85.8286 524.732 95.0515 534.154 95.0515Z" fill="white"/>
<mask id="mask1_12269_26705" style="mask-type:luminance" maskUnits="userSpaceOnUse" x="517" y="53" width="35" height="43">
<path d="M534.154 95.0515C543.576 95.0515 551.214 85.8286 551.214 74.4516C551.214 63.0745 543.576 53.8516 534.154 53.8516C524.732 53.8516 517.094 63.0745 517.094 74.4516C517.094 85.8286 524.732 95.0515 534.154 95.0515Z" fill="white"/>
</mask>
<g mask="url(#mask1_12269_26705)">
<path d="M526.472 88.3181C532.774 88.3181 537.882 82.1083 537.882 74.4482C537.882 66.788 532.774 60.5781 526.472 60.5781C520.171 60.5781 515.062 66.788 515.062 74.4482C515.062 82.1083 520.171 88.3181 526.472 88.3181Z" fill="#14161F"/>
</g>
<path d="M179.983 9.42593C173.373 9.42593 167.133 11.0459 161.643 13.8959V9.08594H139.953V108.506H161.643V84.7359C167.133 87.5859 173.363 89.2059 179.983 89.2059C202.013 89.2059 219.873 71.3459 219.873 49.3159C219.873 27.2859 202.013 9.42593 179.983 9.42593ZM179.983 67.6559C169.853 67.6559 161.643 59.4459 161.643 49.3159C161.643 39.1859 169.853 30.976 179.983 30.976C190.113 30.976 198.323 39.1859 198.323 49.3159C198.323 59.4459 190.113 67.6559 179.983 67.6559Z" fill="#5040FF"/>
<path d="M292.809 67.6997C292.809 77.8497 284.579 86.0797 274.429 86.0797C264.279 86.0797 256.049 77.8497 256.049 67.6997V9.42969H234.539V67.6597H234.559C234.559 67.9797 234.539 68.2997 234.539 68.6197C234.539 90.6497 252.399 108.51 274.429 108.51C296.459 108.51 314.319 90.6497 314.319 68.6197C314.319 68.2997 314.299 67.9797 314.299 67.6597H314.319V9.42969H292.809V67.6997Z" fill="#5040FF"/>
<path d="M120.604 9.08594H98.9141V108.506H120.604V9.08594Z" fill="#5040FF"/>
<path d="M2.20062 30.7759H48.1406L2.54059 91.506C1.19059 93.376 0.390625 95.6659 0.390625 98.1559V108.466H79.0006C79.3106 108.466 79.5606 108.216 79.5606 107.906V86.7759H33.2206L77.9306 27.2159C78.9606 25.7959 79.5706 24.0559 79.5706 22.1759V9.08594H2.21063V30.7759H2.20062Z" fill="#5040FF"/>
<path d="M373.694 9.42593C367.084 9.42593 360.844 11.0459 355.354 13.8959V9.08594H333.664V108.506H355.354V84.7359C360.844 87.5859 367.074 89.2059 373.694 89.2059C395.724 89.2059 413.584 71.3459 413.584 49.3159C413.584 27.2859 395.724 9.42593 373.694 9.42593ZM373.694 67.6559C363.564 67.6559 355.354 59.4459 355.354 49.3259C355.354 39.1959 363.564 30.9859 373.694 30.9859C383.824 30.9859 392.034 39.1959 392.034 49.3259C392.034 59.4559 383.824 67.666 373.694 67.666V67.6559Z" fill="#5040FF"/>
</svg>
