<svg width="610" height="116" viewBox="0 0 610 116" fill="none" xmlns="http://www.w3.org/2000/svg">
<path d="M445.809 45.4302L556.809 0.310211C557.839 -0.0797888 558.539 0.19022 559.419 0.71022L608.879 32.7502C609.639 33.2602 609.739 34.6302 609.739 35.8202V111.88C609.739 114.05 608.599 115.8 606.339 115.8H447.939C445.569 115.8 444.039 113.49 444.039 111.32V49.1802C444.039 47.6302 444.499 46.0502 445.809 45.4202V45.4302Z" fill="#5040FF"/>
<path d="M486.083 94.8328C495.505 94.8328 503.143 85.6099 503.143 74.2328C503.143 62.8557 495.505 53.6328 486.083 53.6328C476.661 53.6328 469.023 62.8557 469.023 74.2328C469.023 85.6099 476.661 94.8328 486.083 94.8328Z" fill="white"/>
<mask id="mask0_12269_26686" style="mask-type:luminance" maskUnits="userSpaceOnUse" x="469" y="53" width="35" height="42">
<path d="M486.083 94.8328C495.505 94.8328 503.143 85.6099 503.143 74.2328C503.143 62.8557 495.505 53.6328 486.083 53.6328C476.661 53.6328 469.023 62.8557 469.023 74.2328C469.023 85.6099 476.661 94.8328 486.083 94.8328Z" fill="white"/>
</mask>
<g mask="url(#mask0_12269_26686)">
<path d="M478.402 88.0994C484.704 88.0994 489.812 81.8896 489.812 74.2294C489.812 66.5692 484.704 60.3594 478.402 60.3594C472.101 60.3594 466.992 66.5692 466.992 74.2294C466.992 81.8896 472.101 88.0994 478.402 88.0994Z" fill="#14161F"/>
</g>
<path d="M534.154 94.8328C543.576 94.8328 551.214 85.6099 551.214 74.2328C551.214 62.8557 543.576 53.6328 534.154 53.6328C524.732 53.6328 517.094 62.8557 517.094 74.2328C517.094 85.6099 524.732 94.8328 534.154 94.8328Z" fill="white"/>
<mask id="mask1_12269_26686" style="mask-type:luminance" maskUnits="userSpaceOnUse" x="517" y="53" width="35" height="42">
<path d="M534.154 94.8328C543.576 94.8328 551.214 85.6099 551.214 74.2328C551.214 62.8557 543.576 53.6328 534.154 53.6328C524.732 53.6328 517.094 62.8557 517.094 74.2328C517.094 85.6099 524.732 94.8328 534.154 94.8328Z" fill="white"/>
</mask>
<g mask="url(#mask1_12269_26686)">
<path d="M526.472 88.0994C532.774 88.0994 537.882 81.8896 537.882 74.2294C537.882 66.5692 532.774 60.3594 526.472 60.3594C520.171 60.3594 515.062 66.5692 515.062 74.2294C515.062 81.8896 520.171 88.0994 526.472 88.0994Z" fill="#14161F"/>
</g>
<path d="M179.983 9.2072C173.373 9.2072 167.133 10.8272 161.643 13.6772V8.86719H139.953V108.287H161.643V84.5172C167.133 87.3672 173.363 88.9872 179.983 88.9872C202.013 88.9872 219.873 71.1272 219.873 49.0972C219.873 27.0672 202.013 9.2072 179.983 9.2072ZM179.983 67.4272C169.853 67.4272 161.643 59.2172 161.643 49.0872C161.643 38.9572 169.853 30.7472 179.983 30.7472C190.113 30.7472 198.323 38.9572 198.323 49.0872C198.323 59.2172 190.113 67.4272 179.983 67.4272Z" fill="#14161F"/>
<path d="M292.809 67.4809C292.809 77.6309 284.579 85.8609 274.429 85.8609C264.279 85.8609 256.049 77.6309 256.049 67.4809V9.21094H234.539V67.4409H234.559C234.559 67.7609 234.539 68.0809 234.539 68.4009C234.539 90.4309 252.399 108.291 274.429 108.291C296.459 108.291 314.319 90.4309 314.319 68.4009C314.319 68.0809 314.299 67.7609 314.299 67.4409H314.319V9.21094H292.809V67.4809Z" fill="#14161F"/>
<path d="M120.604 8.86719H98.9141V108.287H120.604V8.86719Z" fill="#14161F"/>
<path d="M2.20062 30.5572H48.1406L2.54059 91.2872C1.19059 93.1572 0.390625 95.4472 0.390625 97.9372V108.247H79.0006C79.3106 108.247 79.5606 107.997 79.5606 107.687V86.5572H33.2206L77.9306 26.9972C78.9606 25.5772 79.5706 23.8372 79.5706 21.9572V8.86719H2.21063V30.5572H2.20062Z" fill="#14161F"/>
<path d="M373.694 9.2072C367.084 9.2072 360.844 10.8272 355.354 13.6772V8.86719H333.664V108.287H355.354V84.5172C360.844 87.3672 367.074 88.9872 373.694 88.9872C395.724 88.9872 413.584 71.1272 413.584 49.0972C413.584 27.0672 395.724 9.2072 373.694 9.2072ZM373.694 67.4272C363.564 67.4272 355.354 59.2172 355.354 49.0972C355.354 38.9672 363.564 30.7572 373.694 30.7572C383.824 30.7572 392.034 38.9672 392.034 49.0972C392.034 59.2272 383.824 67.4372 373.694 67.4372V67.4272Z" fill="#14161F"/>
</svg>
