<svg width="134" height="134" viewBox="0 0 134 134" fill="none" xmlns="http://www.w3.org/2000/svg">
<path d="M58.6249 6.98096H25.1249C20.5039 6.98096 16.75 10.7391 16.75 15.3559V40.481C16.75 45.102 19.8784 48.8559 23.7263 48.8559C27.5744 48.8559 30.7067 45.102 30.7067 40.481V23.7311C30.7067 22.1935 31.958 20.9421 33.4999 20.9421H50.25C51.7876 20.9421 53.0389 22.1935 53.0389 23.7311V40.4812C53.0389 45.1022 56.1713 48.8562 60.0194 48.8562C63.8675 48.8562 66.9999 45.1022 66.9999 40.4812V15.3559C67.0001 10.7393 63.242 6.98096 58.6249 6.98096Z" fill="#434A54"/>
<path d="M71.4818 41.5808C63.573 33.672 53.0592 29.3169 41.8749 29.3169C30.6865 29.3169 20.1727 33.6723 12.2639 41.5808C4.3551 49.4896 0 60.0033 0 71.1918C0 78.5405 1.93022 85.7743 5.58599 92.1047C9.13132 98.2429 14.2185 103.42 20.2913 107.08C20.7289 107.342 21.2235 107.48 21.7349 107.48H62.011C62.5222 107.48 63.0171 107.342 63.4547 107.08C69.5272 103.42 74.6146 98.2429 78.1602 92.1047C81.8162 85.7741 83.7504 78.5405 83.7504 71.1918C83.7501 60.0033 79.3908 49.4896 71.4818 41.5808Z" fill="#656D78"/>
<path d="M131.207 90.731H30.7069C29.1651 90.731 27.9141 91.9783 27.9141 93.5199V104.688C27.9141 106.23 29.1654 107.481 30.7069 107.481H131.207C132.749 107.481 134 106.23 134 104.688V93.5199C134 91.9783 132.749 90.731 131.207 90.731Z" fill="#CCD1D9"/>
<path d="M47.457 79.5625C42.8401 79.5625 39.082 83.3206 39.082 87.9377V110.27C39.082 114.891 42.8401 118.645 47.457 118.645C52.0738 118.645 55.8322 114.891 55.8322 110.27V87.9377C55.8319 83.3209 52.0738 79.5625 47.457 79.5625Z" fill="#DA4453"/>
<path d="M61.4143 71.188C56.7972 71.188 53.0391 74.9461 53.0391 79.5627V118.645C53.0391 123.265 56.7972 127.02 61.4143 127.02C66.0311 127.02 69.7892 123.265 69.7892 118.645V79.5624C69.7889 74.9461 66.0311 71.188 61.4143 71.188Z" fill="#ED5564"/>
<path d="M114.457 79.5625C109.84 79.5625 106.082 83.3206 106.082 87.9377V110.27C106.082 114.891 109.84 118.645 114.457 118.645C119.074 118.645 122.832 114.891 122.832 110.27V87.9377C122.832 83.3209 119.074 79.5625 114.457 79.5625Z" fill="#DA4453"/>
<path d="M100.496 71.188C95.8792 71.188 92.1211 74.9461 92.1211 79.5627V118.645C92.1211 123.265 95.8792 127.02 100.496 127.02C105.117 127.02 108.871 123.265 108.871 118.645V79.5624C108.871 74.9461 105.118 71.188 100.496 71.188Z" fill="#ED5564"/>
<path d="M134 96.3125C133.285 96.3125 132.569 96.5865 132.025 97.1304C130.933 98.2223 130.933 99.9889 132.025 101.076C132.569 101.624 133.284 101.894 134 101.894V96.3125Z" fill="#AAB2BC"/>
<path d="M27.9141 96.3125V101.894C28.6296 101.894 29.3452 101.624 29.889 101.076C30.9768 99.9889 30.9768 98.2223 29.889 97.1304C29.3452 96.5868 28.6296 96.3125 27.9141 96.3125Z" fill="#AAB2BC"/>
</svg>
