<svg width="128" height="128" viewBox="0 0 128 128" fill="none" xmlns="http://www.w3.org/2000/svg">
<path d="M43.5303 5.30018C43.5303 4.22018 44.1303 3.82018 45.2803 3.82018C46.4303 3.82018 82.8903 3.68018 83.5003 3.68018C84.1003 3.68018 84.7803 4.28018 84.7103 5.09018C84.6403 5.90018 84.7803 17.3202 84.7103 17.9202C84.6403 18.5202 84.3103 19.2002 83.4303 19.2602C82.5603 19.3302 45.7503 19.4602 45.0103 19.4602C44.2703 19.4602 43.6703 18.5902 43.6003 17.7802C43.5303 16.9702 43.5303 5.97018 43.5303 5.30018Z" fill="#546F7B"/>
<path d="M53.4702 18.6602H48.7002V23.9002H53.4702V18.6602Z" fill="#546F7B"/>
<path d="M79.7099 18.8701H75.1699V23.9501H79.7099V18.8701Z" fill="#546F7B"/>
<path d="M81.1402 6.70996H47.4902V15.78H81.1402V6.70996Z" fill="#C9C8C7"/>
<path d="M92.8301 27.1301C92.8301 27.1301 92.9601 10.2001 92.9601 9.53005C92.9601 8.86005 93.5001 8.25005 94.4401 8.52005C95.3801 8.79005 96.9901 9.66005 99.8101 10.5401C102.63 11.4201 105.78 12.4901 106.07 12.8701C106.53 13.4801 104.11 15.1101 100.61 16.9901C97.4301 18.7001 95.8401 19.7401 95.8401 19.7401L95.6401 28.2001L93.2201 29.0701L92.8301 27.1301Z" fill="#2385F8"/>
<path d="M109.76 35.7899C109.76 35.7899 109.76 20.0699 109.76 19.1999C109.76 18.3299 110.77 17.8599 111.51 18.0599C112.25 18.2599 113.66 19.1299 116.14 20.1399C118.31 21.0199 122.24 22.0499 122.19 22.7599C122.11 23.7699 118.93 25.0699 117.08 26.2599C115.2 27.4699 112.38 28.8099 112.38 28.8099V39.2899L109.76 35.7899Z" fill="#4BC5FC"/>
<path d="M36.0804 26.2399C36.0804 26.2399 36.0804 9.16986 36.0804 8.28986C36.0804 7.40986 34.9003 7.36986 33.9803 7.52986C32.9903 7.70986 31.5003 8.86986 29.1604 9.38986C26.8204 9.90986 23.4904 10.2299 22.9904 11.0899C22.6904 11.6099 24.5104 13.8999 27.0804 15.1799C29.6504 16.4599 33.5703 18.3999 33.5703 18.3999V27.1099L36.0804 26.2399Z" fill="#2385F8"/>
<path d="M19.2498 33.14C19.2498 33.14 19.1898 18.35 19.1898 18.06C19.1898 17.77 18.4898 17.3 17.4398 17.71C16.3898 18.12 6.65978 21.23 6.50978 21.92C6.23978 23.2 11.6398 25.11 12.9298 25.69C14.2198 26.27 16.6798 27.41 16.6798 27.41V35.71L19.2498 33.14Z" fill="#4BC5FC"/>
<path d="M5.19044 53.8602C4.45044 47.2102 12.3904 20.8202 63.5104 21.3602C117.66 21.9402 122.47 50.3802 122.18 53.7002C121.98 56.0102 121.56 77.8202 121.56 77.8202C121.56 77.8202 63.9404 95.8702 63.9404 95.2902C63.9404 94.7102 11.9604 78.2502 11.9604 78.2502C11.9604 78.2502 5.75044 58.8902 5.19044 53.8602Z" fill="#EE3E23"/>
<path d="M62.6199 21.36C62.6199 21.36 63.2399 21.34 64.1099 21.36C64.9799 21.38 65.6399 21.4 65.6399 21.4L65.7099 58.97L62.6099 58.9C62.5999 58.91 62.7299 21.47 62.6199 21.36Z" fill="#AE111F"/>
<path d="M100.94 28.3599L82.4297 61.2499L84.9797 62.2099L103.47 29.5899L100.94 28.3599Z" fill="#AE111F"/>
<path d="M122.31 54.1499L99.4502 70.9499L100.14 73.4299L122.11 57.5199C122.1 57.5299 122.44 53.2599 122.31 54.1499Z" fill="#AE111F"/>
<path d="M25.9404 27.8701L42.5604 62.2801L44.2904 59.9401L28.4104 26.8101L25.9404 27.8701Z" fill="#AE111F"/>
<path d="M5.50958 49.98L29.3496 70.54L27.9696 72.54L5.15958 53.26C5.15958 53.26 5.14958 52.3 5.22958 51.57C5.31958 50.83 5.50958 49.98 5.50958 49.98Z" fill="#AE111F"/>
<path d="M25.37 78.3398C25.37 78.3398 25.08 75.3798 25.76 72.7298C26.92 68.1798 35.24 55.1198 64.56 55.5998C93.68 56.0798 102.2 68.1798 102.29 74.4698C102.39 80.7598 98.9 80.6598 98.9 80.6598L62.04 90.0398L43.24 84.0398L25.37 78.3398Z" fill="#B7D016"/>
<path d="M85.8805 67.9802C85.8805 67.1502 85.2105 66.4902 84.3805 66.4902H43.2605C42.4305 66.4902 41.7605 67.1602 41.7605 67.9902L41.7305 84.0502L44.7305 84.0602L44.7605 69.5002H62.5805V86.0002H64.5805V69.5002H82.8905L82.9805 83.8802L85.9805 83.8602L85.8805 67.9802Z" fill="white"/>
<path d="M5.38024 50.4698C5.38024 50.4698 4.42024 52.5498 4.48024 57.0498C4.51024 58.8798 4.48024 89.7798 4.48024 89.7798L13.4502 103.47L29.1402 114.49L53.7902 121.96H73.2002L90.7502 119.35L110.54 106.84L122.86 91.8998C122.86 91.8998 122.83 55.9098 122.79 55.3598C122.47 50.9698 121.6 49.7998 121.6 49.7998C121.6 49.7998 126.03 64.5198 102.6 76.4098C93.7102 80.9198 79.6802 84.5298 63.5302 84.3498C39.6902 84.0898 25.3802 76.6898 18.6002 71.1998C4.11024 59.4598 5.38024 50.4698 5.38024 50.4698Z" fill="#B0B0B0"/>
<path d="M4.53996 93.71C4.53996 93.71 9.75996 105.99 26.15 115.24C35.07 120.27 47.42 124.69 63.73 125.1C78.46 125.47 92.9 121.19 101.66 115.86C117.85 106 123.16 93.23 123.16 93.23L123.11 87C123.11 87 110.35 119.64 64.2 120.03C48.74 120.16 35.77 115.94 26.32 110.06C11.37 100.75 4.45996 88.09 4.45996 88.09L4.53996 93.71Z" fill="#858585"/>
<path d="M4.65 64.3498C4.65 64.3498 15.1 90.5998 63.68 90.9198C109.86 91.2198 122.91 66.4298 122.91 66.4298L122.83 61.0498C122.83 61.0498 111.16 88.4098 63.79 88.0198C14.08 87.6198 4.5 58.5898 4.5 58.5898L4.65 64.3498Z" fill="#858585"/>
<path d="M29.2101 116.93C28.8901 116.43 29.4501 92.76 29.4501 91.71C29.4501 90.22 30.6801 87.5 34.4401 88.73C37.9601 89.88 38.7401 93.25 38.7401 95.19C38.7401 97.13 38.9201 118.69 38.9201 119.22C38.9201 119.75 39.0701 120.97 38.1301 120.72C37.7101 120.6 35.0301 119.85 33.2801 119.08C32.1501 118.56 29.5301 117.42 29.2101 116.93Z" fill="#2F2F2F"/>
<path d="M10.5196 102.72C10.3896 102.2 10.4296 83.1301 10.4296 81.8901C10.4296 79.4301 12.5696 77.5501 15.0996 79.0401C17.6296 80.5301 18.9196 83.2501 18.9896 86.8801C19.0496 90.5101 19.0796 109.13 19.1396 109.65C19.1996 110.17 18.8896 110.53 18.2996 110.1C18.1296 109.98 14.8596 107.57 13.4996 106.21C12.1396 104.86 10.5196 102.72 10.5196 102.72Z" fill="#2F2F2F"/>
<path d="M88.8902 121.49C88.2502 121.03 88.5002 98.1899 88.5002 96.6299C88.5002 95.0699 88.9602 90.1299 93.5602 89.3099C98.6202 88.3999 98.1002 93.7199 98.1602 95.4699C98.2202 97.0299 98.4702 117.16 98.3102 117.67C98.2302 117.93 95.9402 118.98 93.6802 119.93C91.8002 120.71 89.0302 121.58 88.8902 121.49Z" fill="#2F2F2F"/>
<path d="M108.52 111.06C108.07 110.98 108.45 89.2 108.54 86.94C108.64 84.61 109.69 80.46 112.99 79.25C116.17 78.08 117.15 79.97 117.15 83.02C117.15 84.9 116.94 102.55 116.88 103C116.84 103.28 115.49 104.73 113.67 106.6C111.75 108.58 108.74 111.1 108.52 111.06Z" fill="#2F2F2F"/>
<path d="M13.5401 47.2101C13.4701 47.9201 16.9801 50.9701 17.4101 50.9301C17.8401 50.8901 20.4101 48.1401 20.4101 47.5701C20.4101 47.0001 16.8901 43.8901 16.6601 43.9301C16.1201 44.0301 13.5801 46.7301 13.5401 47.2101Z" fill="#FF7879"/>
<path d="M29.4905 52.4501C29.5205 52.9901 31.7705 57.1601 32.6105 57.1301C33.6605 57.0901 36.4505 54.9101 36.3905 54.4001C36.3305 53.8901 33.9605 50.0201 33.2405 49.9301C32.5305 49.8501 29.4605 51.8601 29.4905 52.4501Z" fill="#FF7879"/>
<path d="M18.6 35.9799C18.62 36.3599 21.11 39.9999 21.56 39.9599C22.01 39.9199 24.79 37.9699 24.85 37.4499C24.91 36.8599 22.58 33.5199 22.01 33.3899C21.44 33.2599 18.56 35.2499 18.6 35.9799Z" fill="#FF7879"/>
<path d="M37.5404 38.6102C37.5104 38.9002 39.5304 43.7602 40.1404 43.7202C40.9904 43.6602 43.9004 42.6402 43.9804 42.1202C44.0604 41.5902 42.0904 36.7502 41.7304 36.7102C41.3704 36.6702 37.5804 38.2102 37.5404 38.6102Z" fill="#FF7879"/>
<path d="M44.8799 30.9502C44.7499 31.4902 45.8399 34.3702 46.0999 34.8802C46.4199 35.5302 46.9899 35.9802 48.0899 35.6902C48.9199 35.4702 50.7699 34.8002 50.8499 34.1102C50.9299 33.4202 49.3499 29.6502 48.8599 29.4002C48.3699 29.1502 45.0399 30.3002 44.8799 30.9502Z" fill="#FF7879"/>
<path d="M54.1299 34.36C54.4999 34.59 58.4999 34.25 58.6299 33.95C58.9499 33.22 58.5099 28.76 58.0599 28.43C57.6099 28.11 53.7499 28.42 53.5599 28.8C52.9899 29.93 53.4799 33.95 54.1299 34.36Z" fill="#FF7879"/>
<path d="M70.1103 32.1502C69.2003 32.8502 69.2003 37.6902 69.6503 38.4802C70.0203 39.1302 73.7603 39.2202 74.3103 38.7102C74.6203 38.4202 75.1003 33.0302 74.7703 32.5202C74.4503 32.0102 70.7103 31.6802 70.1103 32.1502Z" fill="#FF7879"/>
<path d="M79.4298 27.2499C78.8798 27.7999 78.2298 33.1099 78.5998 33.5299C79.1598 34.1599 82.6198 34.5499 83.1698 34.2199C83.7198 33.8999 84.7898 28.6299 84.5098 27.8499C84.2398 27.0699 80.0598 26.6299 79.4298 27.2499Z" fill="#FF7879"/>
<path d="M80.31 47.2999C79.62 47.5299 77.8 53.0199 77.91 53.4899C78.19 54.6899 81.88 55.6599 82.62 55.2399C83.05 54.9999 84.93 49.6099 84.84 49.1399C84.74 48.6899 81.04 47.0599 80.31 47.2999Z" fill="#FF7879"/>
<path d="M105.66 38.1C104.6 38.27 101.92 42.63 101.92 43.32C101.92 44.01 104.78 45.95 105.34 45.86C105.89 45.77 109.13 40.78 109.13 40.41C109.13 40.04 106.54 37.96 105.66 38.1Z" fill="#FF7879"/>
<path d="M105.76 54.4502C104.93 54.4502 100.91 58.5102 100.91 59.1102C100.91 59.7102 103.22 61.9302 104 62.0202C104.78 62.1102 108.89 57.9102 108.94 57.1702C108.99 56.4402 106.59 54.4502 105.76 54.4502Z" fill="#FF7879"/>
<path d="M51.4503 124.05C51.0403 123.64 51.5003 107.38 51.5703 104.7C51.6503 101.45 53.9304 92.9199 63.9904 92.7599C74.0604 92.5999 76.9804 101.86 76.9804 104.86C76.9804 107.86 77.1503 123.75 76.7803 124.24C76.6203 124.46 71.5404 125.34 63.7404 125.26C56.3404 125.18 51.8603 124.45 51.4503 124.05Z" fill="#2F2F2F"/>
</svg>
