<svg width="148" height="148" viewBox="0 0 148 148" fill="none" xmlns="http://www.w3.org/2000/svg">
<path d="M0 0H147.122V147.126H0V0Z" fill="#E50012"/>
<path d="M116.883 122.435C113.488 122.435 110.716 119.68 110.716 116.275C110.716 112.876 113.488 110.103 116.883 110.103C120.291 110.103 123.06 112.876 123.06 116.275C123.06 119.68 120.291 122.435 116.883 122.435ZM116.883 105.025C110.687 105.025 105.637 110.073 105.637 116.275C105.637 122.471 110.688 127.527 116.883 127.527C123.088 127.527 128.139 122.472 128.139 116.275C128.139 110.073 123.087 105.025 116.883 105.025ZM78.3851 105.025H73.3232V127.527H78.3851V105.025ZM62.9116 105.025V106.89C61.0758 105.673 58.9218 105.024 56.7191 105.025C50.5247 105.025 45.4729 110.073 45.4729 116.275C45.4729 122.471 50.5241 127.527 56.7191 127.527C59.0101 127.527 61.1387 126.835 62.9198 125.655V127.527H67.9735V105.025H62.9116ZM56.7191 122.435C53.323 122.435 50.554 119.68 50.554 116.275C50.554 112.876 53.323 110.103 56.7191 110.103C60.1253 110.103 62.8969 112.876 62.8969 116.275C62.8969 119.68 60.1253 122.435 56.7191 122.435ZM88.5211 120.012C88.5625 122.572 90.7108 123.603 93.0203 123.603C94.7155 123.603 96.8607 122.942 96.8607 120.882C96.8607 119.104 94.4245 118.485 90.2143 117.578C86.8291 116.834 83.4439 115.637 83.4439 111.878C83.4439 106.431 88.15 105.027 92.7307 105.027C97.3986 105.027 101.692 106.595 102.147 111.837H96.5723C96.4074 109.569 94.6741 108.947 92.5683 108.947C91.2462 108.947 89.3066 109.196 89.3066 110.93C89.3066 113.036 92.6084 113.324 95.9523 114.108C99.3796 114.892 102.725 116.13 102.725 120.095C102.725 125.709 97.8518 127.527 92.9802 127.527C88.0252 127.527 83.1956 125.667 82.9473 120.012H88.5211ZM36.428 96.8438V106.896C34.5911 105.675 32.4342 105.024 30.2286 105.025C24.0329 105.025 18.9824 110.074 18.9824 116.276C18.9824 122.472 24.0329 127.527 30.2286 127.527C32.5202 127.527 34.6533 126.835 36.4319 125.653L36.4287 127.527H41.4823V96.8444H36.428V96.8438ZM30.2286 122.435C26.8344 122.435 24.0635 119.68 24.0635 116.275C24.0635 112.876 26.8344 110.103 30.2286 110.103C33.6367 110.103 36.4045 112.876 36.4045 116.275C36.4045 119.68 33.6367 122.435 30.2286 122.435Z" fill="white"/>
<path d="M30.8397 37.3432C27.2609 37.3432 24.3391 34.4367 24.3391 30.849C24.3391 27.2633 27.2609 24.3383 30.8397 24.3383C34.4362 24.3383 37.3574 27.2633 37.3574 30.849C37.3574 34.4367 34.4362 37.3432 30.8397 37.3432ZM30.8397 18.981C24.3111 18.981 18.9824 24.3058 18.9824 30.8497C18.9824 37.3776 24.3111 42.7069 30.8397 42.7069C37.3899 42.7069 42.7103 37.3776 42.7103 30.8497C42.7103 24.3052 37.3899 18.981 30.8397 18.981ZM73.5549 37.3432C69.9717 37.3432 67.0537 34.4367 67.0537 30.849C67.0537 27.2633 69.9717 24.3383 73.5549 24.3383C77.1502 24.3383 80.0688 27.2633 80.0688 30.849C80.0694 34.4367 77.1508 37.3432 73.5549 37.3432ZM73.5549 18.981C67.0218 18.981 61.6932 24.3058 61.6932 30.8497C61.6932 37.3776 67.0225 42.7069 73.5549 42.7069C80.1 42.7069 85.4191 37.3776 85.4191 30.8497C85.4198 24.3052 80.1006 18.981 73.5549 18.981ZM116.27 37.3432C112.696 37.3432 109.768 34.4367 109.768 30.849C109.768 27.2633 112.696 24.3383 116.27 24.3383C119.866 24.3383 122.787 27.2633 122.787 30.849C122.787 34.4367 119.866 37.3432 116.27 37.3432ZM116.27 18.981C109.742 18.981 104.413 24.3058 104.413 30.8497C104.413 37.3776 109.743 42.7069 116.27 42.7069C122.82 42.7069 128.139 37.3776 128.139 30.8497C128.139 24.3052 122.82 18.981 116.27 18.981ZM30.8397 80.0591C27.2609 80.0591 24.3391 77.1481 24.3391 73.561C24.3391 69.9702 27.2609 67.0554 30.8397 67.0554C34.4362 67.0554 37.3574 69.9708 37.3574 73.561C37.3574 77.1481 34.4362 80.0591 30.8397 80.0591ZM30.8397 61.6962C24.3111 61.6962 18.9824 67.0166 18.9824 73.561C18.9824 80.0903 24.3111 85.4266 30.8397 85.4266C37.3899 85.4266 42.7103 80.0903 42.7103 73.561C42.7103 67.0166 37.3899 61.6962 30.8397 61.6962ZM73.5549 80.0591C69.9717 80.0591 67.0537 77.1481 67.0537 73.561C67.0537 69.9702 69.9717 67.0554 73.5549 67.0554C77.1502 67.0554 80.0688 69.9708 80.0688 73.561C80.0694 77.1481 77.1508 80.0591 73.5549 80.0591ZM73.5549 61.6962C67.0218 61.6962 61.6932 67.0166 61.6932 73.561C61.6932 80.0903 67.0225 85.4266 73.5549 85.4266C80.1 85.4266 85.4191 80.0903 85.4191 73.561C85.4198 67.0166 80.1006 61.6962 73.5549 61.6962ZM116.27 80.0591C112.696 80.0591 109.768 77.1481 109.768 73.561C109.768 69.9702 112.696 67.0554 116.27 67.0554C119.866 67.0554 122.787 69.9708 122.787 73.561C122.787 77.1481 119.866 80.0591 116.27 80.0591ZM116.27 61.6962C109.742 61.6962 104.413 67.0166 104.413 73.561C104.413 80.0903 109.743 85.4266 116.27 85.4266C122.82 85.4266 128.139 80.0903 128.139 73.561C128.139 67.0166 122.82 61.6962 116.27 61.6962Z" fill="white"/>
</svg>
